<?xml version="1.0" standalone="no"?>
<!DOCTYPE svg PUBLIC "-//W3C//DTD SVG 20010904//EN"
 "http://www.w3.org/TR/2001/REC-SVG-20010904/DTD/svg10.dtd">
<svg version="1.0" xmlns="http://www.w3.org/2000/svg"
 width="100.000000pt" height="80.000000pt" viewBox="0 0 100.000000 80.000000"
 preserveAspectRatio="xMidYMid meet">

<g transform="translate(0.000000,80.000000) scale(0.100000,-0.100000)"
fill="#000000" stroke="none">
<path d="M280 455 c0 -25 -31 -46 -47 -33 -7 6 -21 7 -30 3 -16 -7 -15 -9 7
-15 l25 -7 -28 -13 c-21 -10 -30 -11 -39 -2 -19 19 -38 14 -38 -8 0 -29 26
-36 66 -17 29 14 34 15 34 2 0 -8 7 -15 16 -15 15 0 15 -2 0 -25 -15 -23 -15
-25 3 -35 27 -14 31 -13 31 10 0 27 30 103 46 116 17 14 18 24 2 24 -6 0 -20
7 -30 17 -17 15 -18 15 -18 -2z m-4 -61 c-3 -9 -6 -18 -6 -20 0 -2 -7 -4 -15
-4 -13 0 -14 4 -5 20 13 24 35 27 26 4z"/>
<path d="M813 414 c21 -14 41 -24 43 -21 6 5 -59 47 -72 47 -5 0 9 -12 29 -26z"/>
<path d="M496 391 c-28 -31 -12 -59 39 -72 49 -12 62 -31 39 -54 -19 -19 -38
-19 -53 -1 -10 11 -9 16 5 24 14 8 14 10 1 15 -8 3 -23 -1 -34 -8 -30 -23 -5
-49 49 -53 54 -4 84 22 74 62 -5 20 -16 28 -51 37 -28 7 -45 17 -45 26 0 12 7
14 28 10 21 -4 31 -1 40 14 11 18 9 19 -31 19 -31 0 -49 -6 -61 -19z"/>
<path d="M780 390 c0 -7 8 -9 20 -5 15 5 20 2 20 -10 0 -11 -5 -15 -15 -11 -8
3 -15 0 -15 -6 0 -9 -3 -9 -12 0 -15 15 -38 16 -38 2 0 -6 7 -10 16 -8 10 2
19 -3 22 -11 3 -10 -1 -12 -17 -8 -18 4 -20 3 -11 -8 14 -16 40 -9 40 11 0 8
9 14 21 14 30 0 22 44 -8 48 -13 2 -23 -2 -23 -8z"/>
<path d="M671 352 c-1 -14 27 -72 34 -72 3 0 3 11 -1 25 -8 31 9 33 24 3 7
-15 11 -18 11 -7 1 20 -19 39 -40 39 -10 0 -20 6 -22 13 -4 9 -6 9 -6 -1z"/>
<path d="M378 293 c-5 -36 -3 -52 6 -42 9 11 16 79 8 79 -6 0 -12 -17 -14 -37z"/>
<path d="M302 295 c-6 -13 -7 -27 -3 -30 5 -2 12 7 15 21 9 35 2 40 -12 9z"/>
<path d="M636 311 c-8 -13 3 -38 19 -45 8 -3 17 -1 20 3 2 5 -4 11 -15 14 -11
3 -20 11 -20 17 0 7 7 10 15 6 8 -3 15 -1 15 4 0 13 -27 13 -34 1z"/>
<path d="M326 288 c-7 -28 9 -47 26 -30 8 8 8 15 -1 26 -9 11 -9 15 1 19 9 4
8 6 -3 6 -9 1 -19 -9 -23 -21z m24 -18 c0 -5 -4 -10 -10 -10 -5 0 -10 5 -10
10 0 6 5 10 10 10 6 0 10 -4 10 -10z"/>
<path d="M412 291 c-20 -12 -10 -45 13 -49 15 -2 17 -1 6 6 -8 6 -12 19 -8 31
3 12 4 21 4 21 -1 0 -8 -4 -15 -9z"/>
<path d="M435 280 c-3 -5 -1 -10 4 -10 6 0 11 5 11 10 0 6 -2 10 -4 10 -3 0
-8 -4 -11 -10z"/>
</g>
</svg>
